<?xml version="1.0" encoding="UTF-8" standalone="no"?>
<!DOCTYPE svg PUBLIC "-//W3C//DTD SVG 1.1//EN"
 "http://www.w3.org/Graphics/SVG/1.1/DTD/svg11.dtd">
<!-- Generated by graphviz version 12.2.1 (20241206.2353)
 -->
<!-- Title: G Pages: 1 -->
<svg width="5590pt" height="416pt"
 viewBox="0.00 0.00 5589.62 416.12" xmlns="http://www.w3.org/2000/svg" xmlns:xlink="http://www.w3.org/1999/xlink">
<g id="graph0" class="graph" transform="scale(1 1) rotate(0) translate(4 412.12)">
<title>G</title>
<polygon fill="white" stroke="none" points="-4,4 -4,-412.12 5585.62,-412.12 5585.62,4 -4,4"/>
<!-- n1 -->
<g id="node1" class="node">
<title>n1</title>
<g id="a_node1"><a xlink:href="create_dataset_ts_GR0_3gabrielepadovani" xlink:title="gabrielepadovani">
<polygon fill="#fed37f" stroke="black" points="1115.22,-344.06 1023.28,-356.5 931.34,-344.06 931.42,-323.94 1115.13,-323.94 1115.22,-344.06"/>
<text text-anchor="middle" x="1023.28" y="-333.45" font-family="Times,serif" font-size="14.00">gabrielepadovani</text>
</a>
</g>
</g>
<!-- n2 -->
<g id="node2" class="node">
<title>n2</title>
<g id="a_node2"><a xlink:href="yProv4ML_Activitycreate_dataset_ts_GR0_3" xlink:title="yProv4ML_Activity:create_dataset_ts_GR0_3">
<polygon fill="#9fb1fc" stroke="#0000ff" points="2605.93,-228.5 2337.18,-228.5 2337.18,-192.5 2605.93,-192.5 2605.93,-228.5"/>
<text text-anchor="middle" x="2471.55" y="-205.45" font-family="Times,serif" font-size="14.00">yProv4ML_Activity:create_dataset_ts_GR0_3</text>
</a>
</g>
</g>
<!-- n6 -->
<g id="node10" class="node">
<title>n6</title>
<g id="a_node10"><a xlink:href="yProv4ML_EntityOriginal_requirements.txt-yProv4ML_Activity:create_dataset_ts_GR0_3" xlink:title="yProv4ML_Entity:Original_requirements.txt&#45;yProv4ML_Activity:create_dataset_ts_GR0_3">
<ellipse fill="#fffc87" stroke="#808080" cx="356.39" cy="-90.5" rx="353.32" ry="18"/>
<text text-anchor="middle" x="356.39" y="-85.45" font-family="Times,serif" font-size="14.00">yProv4ML_Entity:Original_requirements.txt&#45;yProv4ML_Activity:create_dataset_ts_GR0_3</text>
</a>
</g>
</g>
<!-- n2&#45;&gt;n6 -->
<g id="edge16" class="edge">
<title>n2&#45;&gt;n6</title>
<path fill="none" stroke="#8b0000" d="M2336.97,-196.13C2119.35,-173.37 1674.63,-129.56 1296.78,-109.5 1106.6,-99.41 894.51,-94.57 720.04,-92.29"/>
<polygon fill="#8b0000" stroke="#8b0000" points="720.16,-88.79 710.12,-92.16 720.08,-95.79 720.16,-88.79"/>
<text text-anchor="middle" x="1349.65" y="-116.11" font-family="Times,serif" font-size="10.00" fill="red">used</text>
</g>
<!-- n7 -->
<g id="node12" class="node">
<title>n7</title>
<g id="a_node12"><a xlink:href="yProv4ML_Entityrequirements.txt-yProv4ML_Activity:create_dataset_ts_GR0_3" xlink:title="yProv4ML_Entity:requirements.txt&#45;yProv4ML_Activity:create_dataset_ts_GR0_3">
<ellipse fill="#fffc87" stroke="#808080" cx="1723.6" cy="-44.5" rx="318" ry="18"/>
<text text-anchor="middle" x="1723.6" y="-39.45" font-family="Times,serif" font-size="14.00">yProv4ML_Entity:requirements.txt&#45;yProv4ML_Activity:create_dataset_ts_GR0_3</text>
</a>
</g>
</g>
<!-- n2&#45;&gt;n7 -->
<g id="edge17" class="edge">
<title>n2&#45;&gt;n7</title>
<path fill="none" stroke="#8b0000" d="M2430.03,-192.06C2345.7,-153.75 2157.91,-68.81 2142.93,-65.25 2112.79,-58.08 2081.1,-52.73 2049.2,-48.78"/>
<polygon fill="#8b0000" stroke="#8b0000" points="2049.76,-45.32 2039.42,-47.62 2048.94,-52.27 2049.76,-45.32"/>
<text text-anchor="middle" x="2102.8" y="-67" font-family="Times,serif" font-size="10.00" fill="red">used</text>
</g>
<!-- n8 -->
<g id="node14" class="node">
<title>n8</title>
<g id="a_node14"><a xlink:href="yProv4ML_EntityOriginal_create_dataset.py-yProv4ML_Activity:create_dataset_ts_GR0_3" xlink:title="yProv4ML_Entity:Original_create_dataset.py&#45;yProv4ML_Activity:create_dataset_ts_GR0_3">
<ellipse fill="#fffc87" stroke="#808080" cx="356.39" cy="-270.5" rx="356.39" ry="18"/>
<text text-anchor="middle" x="356.39" y="-265.45" font-family="Times,serif" font-size="14.00">yProv4ML_Entity:Original_create_dataset.py&#45;yProv4ML_Activity:create_dataset_ts_GR0_3</text>
</a>
</g>
</g>
<!-- n2&#45;&gt;n8 -->
<g id="edge20" class="edge">
<title>n2&#45;&gt;n8</title>
<path fill="none" stroke="#8b0000" d="M2336.81,-207.97C2047.22,-203.37 1340.57,-197.02 749.78,-230.5 668.98,-235.08 579.16,-243.95 505.86,-252.18"/>
<polygon fill="#8b0000" stroke="#8b0000" points="505.75,-248.67 496.21,-253.28 506.54,-255.63 505.75,-248.67"/>
<text text-anchor="middle" x="1349.65" y="-211.24" font-family="Times,serif" font-size="10.00" fill="red">used</text>
</g>
<!-- n9 -->
<g id="node16" class="node">
<title>n9</title>
<g id="a_node16"><a xlink:href="yProv4ML_Entitycreate_dataset.py-yProv4ML_Activity:create_dataset_ts_GR0_3" xlink:title="yProv4ML_Entity:create_dataset.py&#45;yProv4ML_Activity:create_dataset_ts_GR0_3">
<ellipse fill="#fffc87" stroke="#808080" cx="1723.6" cy="-364.5" rx="321.07" ry="18"/>
<text text-anchor="middle" x="1723.6" y="-359.45" font-family="Times,serif" font-size="14.00">yProv4ML_Entity:create_dataset.py&#45;yProv4ML_Activity:create_dataset_ts_GR0_3</text>
</a>
</g>
</g>
<!-- n2&#45;&gt;n9 -->
<g id="edge21" class="edge">
<title>n2&#45;&gt;n9</title>
<path fill="none" stroke="#8b0000" d="M2384.55,-228.96C2298.58,-247.35 2162.55,-276.26 2044.68,-300.5 1971.5,-315.55 1888.81,-332.07 1825.81,-344.56"/>
<polygon fill="#8b0000" stroke="#8b0000" points="1825.29,-341.09 1816.16,-346.47 1826.65,-347.96 1825.29,-341.09"/>
<text text-anchor="middle" x="2102.8" y="-297.52" font-family="Times,serif" font-size="10.00" fill="red">used</text>
</g>
<!-- b1 -->
<g id="node18" class="node">
<title>b1</title>
<ellipse fill="gray" stroke="gray" cx="1723.6" cy="-289.5" rx="1.8" ry="1.8"/>
</g>
<!-- n2&#45;&gt;b1 -->
<g id="edge9" class="edge">
<title>n2&#45;&gt;b1</title>
<path fill="none" stroke="#fed37f" d="M2336.76,-224.67C2128.81,-246.69 1749.27,-286.89 1725.75,-289.38"/>
<text text-anchor="middle" x="2102.8" y="-255.3" font-family="Times,serif" font-size="10.00">wasAssociatedWith</text>
</g>
<!-- ann1 -->
<g id="node3" class="node">
<title>ann1</title>
<polygon fill="none" stroke="gray" points="3502.07,-408.12 2991.82,-408.12 2991.82,-278.88 3508.07,-278.88 3508.07,-402.12 3502.07,-408.12"/>
<polyline fill="none" stroke="gray" points="3502.07,-408.12 3502.07,-402.12"/>
<polyline fill="none" stroke="gray" points="3508.07,-402.12 3502.07,-402.12"/>
<g id="a_node3_0"><a xlink:href="yProv4ML_LabelPID" xlink:title="&lt;TABLE&gt;">
<text text-anchor="start" x="3001.82" y="-392.62" font-family="Times,serif" font-size="10.00">yProv4ML_Label:PID</text>
</a>
</g>
<text text-anchor="start" x="3152.32" y="-392.62" font-family="Times,serif" font-size="10.00">7a61fd20&#45;8a6b&#45;4ff2&#45;944c&#45;50b27b3ec835</text>
<g id="a_node3_1"><a xlink:href="yProv4ML_Labelartifact_uri" xlink:title="&lt;TABLE&gt;">
<text text-anchor="start" x="3001.82" y="-379.38" font-family="Times,serif" font-size="10.00">yProv4ML_Label:artifact_uri</text>
</a>
</g>
<text text-anchor="start" x="3152.32" y="-379.38" font-family="Times,serif" font-size="10.00">scripts/create_dataset_ts_3/artifacts_GR0</text>
<g id="a_node3_2"><a xlink:href="yProv4ML_Labelexperiment_dir" xlink:title="&lt;TABLE&gt;">
<text text-anchor="start" x="3001.82" y="-366.12" font-family="Times,serif" font-size="10.00">yProv4ML_Label:experiment_dir</text>
</a>
</g>
<text text-anchor="start" x="3152.32" y="-366.12" font-family="Times,serif" font-size="10.00">scripts/create_dataset_ts_3</text>
<g id="a_node3_3"><a xlink:href="yProv4ML_Labelexperiment_name" xlink:title="&lt;TABLE&gt;">
<text text-anchor="start" x="3001.82" y="-352.88" font-family="Times,serif" font-size="10.00">yProv4ML_Label:experiment_name</text>
</a>
</g>
<text text-anchor="start" x="3152.32" y="-352.88" font-family="Times,serif" font-size="10.00">create_dataset_ts_GR0_3</text>
<g id="a_node3_4"><a xlink:href="yProv4ML_Labelglobal_rank" xlink:title="&lt;TABLE&gt;">
<text text-anchor="start" x="3001.82" y="-339.62" font-family="Times,serif" font-size="10.00">yProv4ML_Label:global_rank</text>
</a>
</g>
<text text-anchor="start" x="3152.32" y="-339.62" font-family="Times,serif" font-size="10.00">0</text>
<g id="a_node3_5"><a xlink:href="yProv4ML_Labellevel" xlink:title="&lt;TABLE&gt;">
<text text-anchor="start" x="3001.82" y="-326.38" font-family="Times,serif" font-size="10.00">yProv4ML_Label:level</text>
</a>
</g>
<text text-anchor="start" x="3152.32" y="-326.38" font-family="Times,serif" font-size="10.00">0</text>
<g id="a_node3_6"><a xlink:href="yProv4ML_Labelprovenance_path" xlink:title="&lt;TABLE&gt;">
<text text-anchor="start" x="3001.82" y="-313.12" font-family="Times,serif" font-size="10.00">yProv4ML_Label:provenance_path</text>
</a>
</g>
<text text-anchor="start" x="3152.32" y="-313.12" font-family="Times,serif" font-size="10.00">scripts</text>
<g id="a_node3_7"><a xlink:href="yProv4ML_Labelpython_version" xlink:title="&lt;TABLE&gt;">
<text text-anchor="start" x="3001.82" y="-299.88" font-family="Times,serif" font-size="10.00">yProv4ML_Label:python_version</text>
</a>
</g>
<text text-anchor="start" x="3152.32" y="-299.88" font-family="Times,serif" font-size="10.00">3.13.11 | packaged by Anaconda, Inc. | (main, Dec 10 2025, 21:21:08) [Clang 20.1.8 ]</text>
<g id="a_node3_8"><a xlink:href="yProv4ML_Labelrun_id" xlink:title="&lt;TABLE&gt;">
<text text-anchor="start" x="3001.82" y="-286.62" font-family="Times,serif" font-size="10.00">yProv4ML_Label:run_id</text>
</a>
</g>
<text text-anchor="start" x="3152.32" y="-286.62" font-family="Times,serif" font-size="10.00">3</text>
</g>
<!-- ann1&#45;&gt;n2 -->
<g id="edge1" class="edge">
<title>ann1&#45;&gt;n2</title>
<path fill="none" stroke="gray" stroke-dasharray="5,2" d="M2991.5,-299.4C2851.68,-275.45 2686.24,-247.11 2580.4,-228.97"/>
</g>
<!-- n3 -->
<g id="node4" class="node">
<title>n3</title>
<g id="a_node4"><a xlink:href="yProv4ML_Activitycreate_dataset_ts_GR0_3-yProv4ML_Source:std.time" xlink:title="yProv4ML_Activity:create_dataset_ts_GR0_3&#45;yProv4ML_Source:std.time">
<polygon fill="#9fb1fc" stroke="#0000ff" points="3462.7,-260.5 3037.2,-260.5 3037.2,-224.5 3462.7,-224.5 3462.7,-260.5"/>
<text text-anchor="middle" x="3249.95" y="-237.45" font-family="Times,serif" font-size="14.00">yProv4ML_Activity:create_dataset_ts_GR0_3&#45;yProv4ML_Source:std.time</text>
</a>
</g>
</g>
<!-- n3&#45;&gt;n2 -->
<g id="edge11" class="edge">
<title>n3&#45;&gt;n2</title>
<path fill="none" stroke="black" d="M3036.79,-233.76C2903.7,-228.27 2735.58,-221.34 2617.61,-216.48"/>
<polygon fill="black" stroke="black" points="2618,-212.99 2607.86,-216.08 2617.71,-219.99 2618,-212.99"/>
<text text-anchor="middle" x="2835.05" y="-228.25" font-family="Times,serif" font-size="10.00">wasInformedBy</text>
</g>
<!-- ann2 -->
<g id="node5" class="node">
<title>ann2</title>
<polygon fill="none" stroke="gray" points="4123.71,-304.38 3859.46,-304.38 3859.46,-254.62 4129.71,-254.62 4129.71,-298.38 4123.71,-304.38"/>
<polyline fill="none" stroke="gray" points="4123.71,-304.38 4123.71,-298.38"/>
<polyline fill="none" stroke="gray" points="4129.71,-298.38 4123.71,-298.38"/>
<g id="a_node5_9"><a xlink:href="yProv4ML_Labelexecution_end_time" xlink:title="&lt;TABLE&gt;">
<text text-anchor="start" x="3869.46" y="-288.88" font-family="Times,serif" font-size="10.00">yProv4ML_Label:execution_end_time</text>
</a>
</g>
<text text-anchor="start" x="4033.46" y="-288.88" font-family="Times,serif" font-size="10.00">1768987540.84481</text>
<g id="a_node5_10"><a xlink:href="yProv4ML_Labelexecution_start_time" xlink:title="&lt;TABLE&gt;">
<text text-anchor="start" x="3869.46" y="-275.62" font-family="Times,serif" font-size="10.00">yProv4ML_Label:execution_start_time</text>
</a>
</g>
<text text-anchor="start" x="4033.46" y="-275.62" font-family="Times,serif" font-size="10.00">1768987540.156922</text>
<g id="a_node5_11"><a xlink:href="yProv4ML_Labellevel" xlink:title="&lt;TABLE&gt;">
<text text-anchor="start" x="3869.46" y="-262.38" font-family="Times,serif" font-size="10.00">yProv4ML_Label:level</text>
</a>
</g>
<text text-anchor="start" x="4033.46" y="-262.38" font-family="Times,serif" font-size="10.00">1</text>
</g>
<!-- ann2&#45;&gt;n3 -->
<g id="edge2" class="edge">
<title>ann2&#45;&gt;n3</title>
<path fill="none" stroke="gray" stroke-dasharray="5,2" d="M3859.1,-272.8C3748.75,-267.3 3590.51,-259.42 3463.11,-253.07"/>
</g>
<!-- n4 -->
<g id="node6" class="node">
<title>n4</title>
<g id="a_node6"><a xlink:href="yProv4ML_EntityOriginal_gpu_dataset_ts.csv-yProv4ML_Activity:create_dataset_ts_GR0_3" xlink:title="yProv4ML_Entity:Original_gpu_dataset_ts.csv&#45;yProv4ML_Activity:create_dataset_ts_GR0_3">
<ellipse fill="#fffc87" stroke="#808080" cx="3249.95" cy="-188.5" rx="362.02" ry="18"/>
<text text-anchor="middle" x="3249.95" y="-183.45" font-family="Times,serif" font-size="14.00">yProv4ML_Entity:Original_gpu_dataset_ts.csv&#45;yProv4ML_Activity:create_dataset_ts_GR0_3</text>
</a>
</g>
</g>
<!-- n4&#45;&gt;n2 -->
<g id="edge12" class="edge">
<title>n4&#45;&gt;n2</title>
<path fill="none" stroke="darkgreen" d="M2918.99,-196.01C2878.96,-197.04 2838.64,-198.13 2800.18,-199.25 2740.31,-200.99 2674.3,-203.21 2617.31,-205.21"/>
<polygon fill="darkgreen" stroke="darkgreen" points="2617.43,-201.7 2607.55,-205.55 2617.67,-208.7 2617.43,-201.7"/>
<text text-anchor="middle" x="2835.05" y="-201" font-family="Times,serif" font-size="10.00" fill="darkgreen">wasGeneratedBy</text>
</g>
<!-- ann3 -->
<g id="node7" class="node">
<title>ann3</title>
<polygon fill="none" stroke="gray" points="4265.46,-237 3717.71,-237 3717.71,-174 4271.46,-174 4271.46,-231 4265.46,-237"/>
<polyline fill="none" stroke="gray" points="4265.46,-237 4265.46,-231"/>
<polyline fill="none" stroke="gray" points="4271.46,-231 4265.46,-231"/>
<g id="a_node7_12"><a xlink:href="yProv4ML_Labelfile_size_in_mb" xlink:title="&lt;TABLE&gt;">
<text text-anchor="start" x="3727.71" y="-221.5" font-family="Times,serif" font-size="10.00">yProv4ML_Label:file_size_in_mb</text>
</a>
</g>
<text text-anchor="start" x="3871.46" y="-221.5" font-family="Times,serif" font-size="10.00">2.719803810119629</text>
<g id="a_node7_13"><a xlink:href="yProv4ML_Labellabel" xlink:title="&lt;TABLE&gt;">
<text text-anchor="start" x="3727.71" y="-208.25" font-family="Times,serif" font-size="10.00">yProv4ML_Label:label</text>
</a>
</g>
<text text-anchor="start" x="3871.46" y="-208.25" font-family="Times,serif" font-size="10.00">yProv4ML_Entity:Original_gpu_dataset_ts.csv&#45;yProv4ML_Activity:create_dataset_ts_GR0_3</text>
<g id="a_node7_14"><a xlink:href="yProv4ML_Labelpath" xlink:title="&lt;TABLE&gt;">
<text text-anchor="start" x="3727.71" y="-195" font-family="Times,serif" font-size="10.00">yProv4ML_Label:path</text>
</a>
</g>
<text text-anchor="start" x="3871.46" y="-195" font-family="Times,serif" font-size="10.00">gpu_dataset_ts.csv</text>
<g id="a_node7_15"><a xlink:href="yProv4ML_Labelrole" xlink:title="&lt;TABLE&gt;">
<text text-anchor="start" x="3727.71" y="-181.75" font-family="Times,serif" font-size="10.00">yProv4ML_Label:role</text>
</a>
</g>
<text text-anchor="start" x="3871.46" y="-181.75" font-family="Times,serif" font-size="10.00">output</text>
</g>
<!-- ann3&#45;&gt;n4 -->
<g id="edge3" class="edge">
<title>ann3&#45;&gt;n4</title>
<path fill="none" stroke="gray" stroke-dasharray="5,2" d="M3717.32,-199.18C3672.77,-198.16 3626.27,-197.09 3580.61,-196.05"/>
</g>
<!-- n5 -->
<g id="node8" class="node">
<title>n5</title>
<g id="a_node8"><a xlink:href="yProv4ML_Entitygpu_dataset_ts.csv-yProv4ML_Activity:create_dataset_ts_GR0_3" xlink:title="yProv4ML_Entity:gpu_dataset_ts.csv&#45;yProv4ML_Activity:create_dataset_ts_GR0_3">
<ellipse fill="#fffc87" stroke="#808080" cx="4703.92" cy="-139.5" rx="326.7" ry="18"/>
<text text-anchor="middle" x="4703.92" y="-134.45" font-family="Times,serif" font-size="14.00">yProv4ML_Entity:gpu_dataset_ts.csv&#45;yProv4ML_Activity:create_dataset_ts_GR0_3</text>
</a>
</g>
</g>
<!-- n5&#45;&gt;n2 -->
<g id="edge13" class="edge">
<title>n5&#45;&gt;n2</title>
<path fill="none" stroke="darkgreen" d="M4400.61,-132.57C4040.01,-126.75 3419.2,-124.49 2887.93,-161.5 2796.08,-167.9 2693.33,-179.98 2613,-190.54"/>
<polygon fill="darkgreen" stroke="darkgreen" points="2612.77,-187.04 2603.32,-191.82 2613.69,-193.98 2612.77,-187.04"/>
<text text-anchor="middle" x="3664.84" y="-133.77" font-family="Times,serif" font-size="10.00" fill="darkgreen">wasGeneratedBy</text>
</g>
<!-- b2 -->
<g id="node19" class="node">
<title>b2</title>
<ellipse fill="gray" stroke="gray" cx="3994.59" cy="-154.5" rx="1.8" ry="1.8"/>
</g>
<!-- n5&#45;&gt;b2 -->
<g id="edge14" class="edge">
<title>n5&#45;&gt;b2</title>
<path fill="none" stroke="black" d="M4397.56,-145.98C4213.66,-149.88 4012.01,-154.15 3996.54,-154.48"/>
<text text-anchor="middle" x="4324.34" y="-149.65" font-family="Times,serif" font-size="10.00">wasDerivedFrom</text>
</g>
<!-- ann4 -->
<g id="node9" class="node">
<title>ann4</title>
<polygon fill="none" stroke="gray" points="5575.62,-171 5067.62,-171 5067.62,-108 5581.62,-108 5581.62,-165 5575.62,-171"/>
<polyline fill="none" stroke="gray" points="5575.62,-171 5575.62,-165"/>
<polyline fill="none" stroke="gray" points="5581.62,-165 5575.62,-165"/>
<g id="a_node9_16"><a xlink:href="yProv4ML_Labelfile_size_in_mb" xlink:title="&lt;TABLE&gt;">
<text text-anchor="start" x="5077.62" y="-155.5" font-family="Times,serif" font-size="10.00">yProv4ML_Label:file_size_in_mb</text>
</a>
</g>
<text text-anchor="start" x="5221.37" y="-155.5" font-family="Times,serif" font-size="10.00">2.719803810119629</text>
<g id="a_node9_17"><a xlink:href="yProv4ML_Labellabel" xlink:title="&lt;TABLE&gt;">
<text text-anchor="start" x="5077.62" y="-142.25" font-family="Times,serif" font-size="10.00">yProv4ML_Label:label</text>
</a>
</g>
<text text-anchor="start" x="5221.37" y="-142.25" font-family="Times,serif" font-size="10.00">yProv4ML_Entity:gpu_dataset_ts.csv&#45;yProv4ML_Activity:create_dataset_ts_GR0_3</text>
<g id="a_node9_18"><a xlink:href="yProv4ML_Labelpath" xlink:title="&lt;TABLE&gt;">
<text text-anchor="start" x="5077.62" y="-129" font-family="Times,serif" font-size="10.00">yProv4ML_Label:path</text>
</a>
</g>
<text text-anchor="start" x="5221.37" y="-129" font-family="Times,serif" font-size="10.00">scripts/create_dataset_ts_3/artifacts_GR0/gpu_dataset_ts.csv</text>
<g id="a_node9_19"><a xlink:href="yProv4ML_Labelrole" xlink:title="&lt;TABLE&gt;">
<text text-anchor="start" x="5077.62" y="-115.75" font-family="Times,serif" font-size="10.00">yProv4ML_Label:role</text>
</a>
</g>
<text text-anchor="start" x="5221.37" y="-115.75" font-family="Times,serif" font-size="10.00">output</text>
</g>
<!-- ann4&#45;&gt;n5 -->
<g id="edge4" class="edge">
<title>ann4&#45;&gt;n5</title>
<path fill="none" stroke="gray" stroke-dasharray="5,2" d="M5067.51,-139.5C5055.46,-139.5 5043.29,-139.5 5031.1,-139.5"/>
</g>
<!-- ann5 -->
<g id="node11" class="node">
<title>ann5</title>
<polygon fill="none" stroke="gray" points="1288.53,-182 752.03,-182 752.03,-119 1294.53,-119 1294.53,-176 1288.53,-182"/>
<polyline fill="none" stroke="gray" points="1288.53,-182 1288.53,-176"/>
<polyline fill="none" stroke="gray" points="1294.53,-176 1288.53,-176"/>
<g id="a_node11_20"><a xlink:href="yProv4ML_Labelfile_size_in_mb" xlink:title="&lt;TABLE&gt;">
<text text-anchor="start" x="762.03" y="-166.5" font-family="Times,serif" font-size="10.00">yProv4ML_Label:file_size_in_mb</text>
</a>
</g>
<text text-anchor="start" x="905.78" y="-166.5" font-family="Times,serif" font-size="10.00">6.008148193359375e&#45;05</text>
<g id="a_node11_21"><a xlink:href="yProv4ML_Labellabel" xlink:title="&lt;TABLE&gt;">
<text text-anchor="start" x="762.03" y="-153.25" font-family="Times,serif" font-size="10.00">yProv4ML_Label:label</text>
</a>
</g>
<text text-anchor="start" x="905.78" y="-153.25" font-family="Times,serif" font-size="10.00">yProv4ML_Entity:Original_requirements.txt&#45;yProv4ML_Activity:create_dataset_ts_GR0_3</text>
<g id="a_node11_22"><a xlink:href="yProv4ML_Labelpath" xlink:title="&lt;TABLE&gt;">
<text text-anchor="start" x="762.03" y="-140" font-family="Times,serif" font-size="10.00">yProv4ML_Label:path</text>
</a>
</g>
<text text-anchor="start" x="905.78" y="-140" font-family="Times,serif" font-size="10.00">prov/BENCH.C.RTX8000/ml_64_7_None_0/artifacts_GR0/requirements.txt</text>
<g id="a_node11_23"><a xlink:href="yProv4ML_Labelrole" xlink:title="&lt;TABLE&gt;">
<text text-anchor="start" x="762.03" y="-126.75" font-family="Times,serif" font-size="10.00">yProv4ML_Label:role</text>
</a>
</g>
<text text-anchor="start" x="905.78" y="-126.75" font-family="Times,serif" font-size="10.00">input</text>
</g>
<!-- ann5&#45;&gt;n6 -->
<g id="edge5" class="edge">
<title>ann5&#45;&gt;n6</title>
<path fill="none" stroke="gray" stroke-dasharray="5,2" d="M751.84,-126.1C678.5,-119.48 600.98,-112.48 534.26,-106.46"/>
</g>
<!-- b3 -->
<g id="node20" class="node">
<title>b3</title>
<ellipse fill="gray" stroke="gray" cx="1023.28" cy="-55.5" rx="1.8" ry="1.8"/>
</g>
<!-- n7&#45;&gt;b3 -->
<g id="edge18" class="edge">
<title>n7&#45;&gt;b3</title>
<path fill="none" stroke="black" d="M1416.31,-49.32C1236.01,-52.16 1040.22,-55.25 1025.2,-55.49"/>
<text text-anchor="middle" x="1349.65" y="-52.41" font-family="Times,serif" font-size="10.00">wasDerivedFrom</text>
</g>
<!-- ann6 -->
<g id="node13" class="node">
<title>ann6</title>
<polygon fill="none" stroke="gray" points="2776.18,-63 2160.93,-63 2160.93,0 2782.18,0 2782.18,-57 2776.18,-63"/>
<polyline fill="none" stroke="gray" points="2776.18,-63 2776.18,-57"/>
<polyline fill="none" stroke="gray" points="2782.18,-57 2776.18,-57"/>
<g id="a_node13_24"><a xlink:href="yProv4ML_Labelfile_size_in_mb" xlink:title="&lt;TABLE&gt;">
<text text-anchor="start" x="2170.93" y="-47.5" font-family="Times,serif" font-size="10.00">yProv4ML_Label:file_size_in_mb</text>
</a>
</g>
<text text-anchor="start" x="2314.68" y="-47.5" font-family="Times,serif" font-size="10.00">6.008148193359375e&#45;05</text>
<g id="a_node13_25"><a xlink:href="yProv4ML_Labellabel" xlink:title="&lt;TABLE&gt;">
<text text-anchor="start" x="2170.93" y="-34.25" font-family="Times,serif" font-size="10.00">yProv4ML_Label:label</text>
</a>
</g>
<text text-anchor="start" x="2314.68" y="-34.25" font-family="Times,serif" font-size="10.00">yProv4ML_Entity:requirements.txt&#45;yProv4ML_Activity:create_dataset_ts_GR0_3</text>
<g id="a_node13_26"><a xlink:href="yProv4ML_Labelpath" xlink:title="&lt;TABLE&gt;">
<text text-anchor="start" x="2170.93" y="-21" font-family="Times,serif" font-size="10.00">yProv4ML_Label:path</text>
</a>
</g>
<text text-anchor="start" x="2314.68" y="-21" font-family="Times,serif" font-size="10.00">scripts/create_dataset_ts_3/artifacts_GR0/./prov/BENCH.C.RTX8000/ml_64_7_None_0/artifacts_GR0/requir...</text>
<g id="a_node13_27"><a xlink:href="yProv4ML_Labelrole" xlink:title="&lt;TABLE&gt;">
<text text-anchor="start" x="2170.93" y="-7.75" font-family="Times,serif" font-size="10.00">yProv4ML_Label:role</text>
</a>
</g>
<text text-anchor="start" x="2314.68" y="-7.75" font-family="Times,serif" font-size="10.00">input</text>
</g>
<!-- ann6&#45;&gt;n7 -->
<g id="edge6" class="edge">
<title>ann6&#45;&gt;n7</title>
<path fill="none" stroke="gray" stroke-dasharray="5,2" d="M2160.68,-36.9C2117.05,-37.66 2072.23,-38.44 2028.71,-39.2"/>
</g>
<!-- ann7 -->
<g id="node15" class="node">
<title>ann7</title>
<polygon fill="none" stroke="gray" points="1290.78,-302 749.78,-302 749.78,-239 1296.78,-239 1296.78,-296 1290.78,-302"/>
<polyline fill="none" stroke="gray" points="1290.78,-302 1290.78,-296"/>
<polyline fill="none" stroke="gray" points="1296.78,-296 1290.78,-296"/>
<g id="a_node15_28"><a xlink:href="yProv4ML_Labelfile_size_in_mb" xlink:title="&lt;TABLE&gt;">
<text text-anchor="start" x="759.78" y="-286.5" font-family="Times,serif" font-size="10.00">yProv4ML_Label:file_size_in_mb</text>
</a>
</g>
<text text-anchor="start" x="903.53" y="-286.5" font-family="Times,serif" font-size="10.00">0.0032110214233398438</text>
<g id="a_node15_29"><a xlink:href="yProv4ML_Labellabel" xlink:title="&lt;TABLE&gt;">
<text text-anchor="start" x="759.78" y="-273.25" font-family="Times,serif" font-size="10.00">yProv4ML_Label:label</text>
</a>
</g>
<text text-anchor="start" x="903.53" y="-273.25" font-family="Times,serif" font-size="10.00">yProv4ML_Entity:Original_create_dataset.py&#45;yProv4ML_Activity:create_dataset_ts_GR0_3</text>
<g id="a_node15_30"><a xlink:href="yProv4ML_Labelpath" xlink:title="&lt;TABLE&gt;">
<text text-anchor="start" x="759.78" y="-260" font-family="Times,serif" font-size="10.00">yProv4ML_Label:path</text>
</a>
</g>
<text text-anchor="start" x="903.53" y="-260" font-family="Times,serif" font-size="10.00">src/create_dataset.py</text>
<g id="a_node15_31"><a xlink:href="yProv4ML_Labelrole" xlink:title="&lt;TABLE&gt;">
<text text-anchor="start" x="759.78" y="-246.75" font-family="Times,serif" font-size="10.00">yProv4ML_Label:role</text>
</a>
</g>
<text text-anchor="start" x="903.53" y="-246.75" font-family="Times,serif" font-size="10.00">input</text>
</g>
<!-- ann7&#45;&gt;n8 -->
<g id="edge7" class="edge">
<title>ann7&#45;&gt;n8</title>
<path fill="none" stroke="gray" stroke-dasharray="5,2" d="M749.44,-270.5C737.44,-270.5 725.32,-270.5 713.17,-270.5"/>
</g>
<!-- b4 -->
<g id="node21" class="node">
<title>b4</title>
<ellipse fill="gray" stroke="gray" cx="1023.28" cy="-376.5" rx="1.8" ry="1.8"/>
</g>
<!-- n9&#45;&gt;b4 -->
<g id="edge22" class="edge">
<title>n9&#45;&gt;b4</title>
<path fill="none" stroke="black" d="M1415.55,-369.78C1235.44,-372.87 1040.18,-376.23 1025.2,-376.48"/>
<text text-anchor="middle" x="1349.65" y="-372.97" font-family="Times,serif" font-size="10.00">wasDerivedFrom</text>
</g>
<!-- ann8 -->
<g id="node17" class="node">
<title>ann8</title>
<polygon fill="none" stroke="gray" points="2719.18,-396 2217.93,-396 2217.93,-333 2725.18,-333 2725.18,-390 2719.18,-396"/>
<polyline fill="none" stroke="gray" points="2719.18,-396 2719.18,-390"/>
<polyline fill="none" stroke="gray" points="2725.18,-390 2719.18,-390"/>
<g id="a_node17_32"><a xlink:href="yProv4ML_Labelfile_size_in_mb" xlink:title="&lt;TABLE&gt;">
<text text-anchor="start" x="2227.93" y="-380.5" font-family="Times,serif" font-size="10.00">yProv4ML_Label:file_size_in_mb</text>
</a>
</g>
<text text-anchor="start" x="2371.68" y="-380.5" font-family="Times,serif" font-size="10.00">0.0032110214233398438</text>
<g id="a_node17_33"><a xlink:href="yProv4ML_Labellabel" xlink:title="&lt;TABLE&gt;">
<text text-anchor="start" x="2227.93" y="-367.25" font-family="Times,serif" font-size="10.00">yProv4ML_Label:label</text>
</a>
</g>
<text text-anchor="start" x="2371.68" y="-367.25" font-family="Times,serif" font-size="10.00">yProv4ML_Entity:create_dataset.py&#45;yProv4ML_Activity:create_dataset_ts_GR0_3</text>
<g id="a_node17_34"><a xlink:href="yProv4ML_Labelpath" xlink:title="&lt;TABLE&gt;">
<text text-anchor="start" x="2227.93" y="-354" font-family="Times,serif" font-size="10.00">yProv4ML_Label:path</text>
</a>
</g>
<text text-anchor="start" x="2371.68" y="-354" font-family="Times,serif" font-size="10.00">scripts/create_dataset_ts_3/artifacts_GR0/src/src/create_dataset.py</text>
<g id="a_node17_35"><a xlink:href="yProv4ML_Labelrole" xlink:title="&lt;TABLE&gt;">
<text text-anchor="start" x="2227.93" y="-340.75" font-family="Times,serif" font-size="10.00">yProv4ML_Label:role</text>
</a>
</g>
<text text-anchor="start" x="2371.68" y="-340.75" font-family="Times,serif" font-size="10.00">input</text>
</g>
<!-- ann8&#45;&gt;n9 -->
<g id="edge8" class="edge">
<title>ann8&#45;&gt;n9</title>
<path fill="none" stroke="gray" stroke-dasharray="5,2" d="M2217.49,-364.5C2162.03,-364.5 2102.62,-364.5 2044.92,-364.5"/>
</g>
<!-- b1&#45;&gt;n1 -->
<g id="edge10" class="edge">
<title>b1&#45;&gt;n1</title>
<path fill="none" stroke="#fed37f" d="M1721.47,-289.58C1697.97,-291.23 1314.86,-318.11 1126.8,-331.31"/>
<polygon fill="#fed37f" stroke="#fed37f" points="1126.76,-327.8 1117.03,-331.99 1127.25,-334.78 1126.76,-327.8"/>
</g>
<!-- b2&#45;&gt;n4 -->
<g id="edge15" class="edge">
<title>b2&#45;&gt;n4</title>
<path fill="none" stroke="black" d="M3992.6,-154.54C3979.29,-155.02 3834.56,-160.29 3717.71,-165.5 3653.07,-168.38 3583.39,-171.7 3518.1,-174.9"/>
<polygon fill="black" stroke="black" points="3518.14,-171.4 3508.32,-175.38 3518.48,-178.39 3518.14,-171.4"/>
</g>
<!-- b3&#45;&gt;n6 -->
<g id="edge19" class="edge">
<title>b3&#45;&gt;n6</title>
<path fill="none" stroke="black" d="M1021.2,-55.56C1004.48,-56.44 796.43,-67.39 617.65,-76.8"/>
<polygon fill="black" stroke="black" points="617.51,-73.3 607.7,-77.32 617.87,-80.29 617.51,-73.3"/>
</g>
<!-- b4&#45;&gt;n8 -->
<g id="edge23" class="edge">
<title>b4&#45;&gt;n8</title>
<path fill="none" stroke="black" d="M1021.29,-376.54C1008.06,-376.99 864.19,-381.5 749.78,-365.5 635.08,-349.46 504.98,-314.55 427.14,-291.81"/>
<polygon fill="black" stroke="black" points="428.55,-288.58 417.97,-289.11 426.57,-295.29 428.55,-288.58"/>
</g>
</g>
</svg>
